HIERARCHY
ROOT root
{
	OFFSET	0	13.1	24.9
	CHANNELS 6  Xposition Yposition Zposition Xrotation Yrotation Zrotation
	JOINT spine_1
	{
		OFFSET	0	9.99999	0
		CHANNELS 3  Xrotation Yrotation Zrotation
		JOINT spine_2
		{
			OFFSET	0	112	-10
			CHANNELS 3  Xrotation Yrotation Zrotation
			JOINT spine_3
			{
				OFFSET	0	206.5	19.3
				CHANNELS 3  Xrotation Yrotation Zrotation
				JOINT spine_4
				{
					OFFSET	0	110.4	14.6
					CHANNELS 3  Xrotation Yrotation Zrotation
					JOINT neck_1
					{
						OFFSET	0	71.8	-50.3
						CHANNELS 3  Xrotation Yrotation Zrotation
						JOINT neck_2
						{
							OFFSET	0	86.2	-25.8
							CHANNELS 3  Xrotation Yrotation Zrotation
							JOINT head_ee
							{
								OFFSET	0	179.8	-8.7
								CHANNELS 3  Xrotation Yrotation Zrotation
								End Site
								{
									OFFSET	1	0	0
								}
							}
						}
					}
					JOINT left_clavicle
					{
						OFFSET	-43.2	22.4	-70.8
						CHANNELS 3  Xrotation Yrotation Zrotation
						JOINT left_shoulder
						{
							OFFSET	-93.9	-5.79999	48.7
							CHANNELS 3  Xrotation Yrotation Zrotation
							JOINT left_elbow
							{
								OFFSET	-291.4	-30.8	15.2
								CHANNELS 3  Xrotation Yrotation Zrotation
								JOINT left_lowarm_twist
								{
									OFFSET	-110.7	-3.89999	13.6
									CHANNELS 3  Xrotation Yrotation Zrotation
									JOINT left_hand
									{
										OFFSET	-110.7	-3.89999	13.6
										CHANNELS 3  Xrotation Yrotation Zrotation
										JOINT left_ee
										{
											OFFSET	-80.8	-5.10001	12.1
											CHANNELS 3  Xrotation Yrotation Zrotation
											End Site
											{
												OFFSET	1	0	0
											}
										}
									}
								}
							}
						}
					}
					JOINT right_clavicle
					{
						OFFSET	43.2	22.4	-70.8
						CHANNELS 3  Xrotation Yrotation Zrotation
						JOINT right_shoulder
						{
							OFFSET	93.9	-5.79999	48.7
							CHANNELS 3  Xrotation Yrotation Zrotation
							JOINT right_elbow
							{
								OFFSET	291.4	-30.8	15.2
								CHANNELS 3  Xrotation Yrotation Zrotation
								JOINT right_lowarm_twist
								{
									OFFSET	110.7	-3.89999	13.6
									CHANNELS 3  Xrotation Yrotation Zrotation
									JOINT right_hand
									{
										OFFSET	110.7	-3.89999	13.6
										CHANNELS 3  Xrotation Yrotation Zrotation
										JOINT right_ee
										{
											OFFSET	80.8	-5.10001	12.1
											CHANNELS 3  Xrotation Yrotation Zrotation
											End Site
											{
												OFFSET	1	0	0
											}
										}
									}
								}
							}
						}
					}
				}
			}
		}
	}
	JOINT left_hip
	{
		OFFSET	-82.8	-127.5	0.300001
		CHANNELS 3  Xrotation Yrotation Zrotation
		JOINT left_knee
		{
			OFFSET	-28.2	-396.7	2.2
			CHANNELS 3  Xrotation Yrotation Zrotation
			JOINT left_ankle
			{
				OFFSET	-11.7	-411.3	35.4
				CHANNELS 3  Xrotation Yrotation Zrotation
				JOINT left_toes
				{
					OFFSET	0	-60	-88.6
					CHANNELS 3  Xrotation Yrotation Zrotation
					JOINT left_foot_ee
					{
						OFFSET	-22.5	-16.5	-42.2
						CHANNELS 3  Xrotation Yrotation Zrotation
						End Site
						{
							OFFSET	1	0	0
						}
					}
				}
			}
		}
	}
	JOINT right_hip
	{
		OFFSET	82.8	-127.5	0.300001
		CHANNELS 3  Xrotation Yrotation Zrotation
		JOINT right_knee
		{
			OFFSET	28.2	-396.7	2.2
			CHANNELS 3  Xrotation Yrotation Zrotation
			JOINT right_ankle
			{
				OFFSET	11.7	-411.3	35.4
				CHANNELS 3  Xrotation Yrotation Zrotation
				JOINT right_toes
				{
					OFFSET	0	-60	-88.6
					CHANNELS 3  Xrotation Yrotation Zrotation
					JOINT right_foot_ee
					{
						OFFSET	22.5	-16.5	-42.2
						CHANNELS 3  Xrotation Yrotation Zrotation
						End Site
						{
							OFFSET	1	0	0
						}
					}
				}
			}
		}
	}
}
MOTION
Frames: 6
Frame Time: 0.02
1187.79243407 731.407 -1703.45460188 -11.353453675 39.6034299297 -0.743777764657 4.53321 0.648443 2.8853 4.53772 0.463611 2.92067 4.55804 0.0748429 2.95626 4.54625 0.54059 2.90742 -8.75412 6.73524 -3.66804 -8.74764 15.1576 -2.06463 -0.0 0.0 -0.0 -1.15998 16.0831 0.0633257 -28.5372 -12.3338 64.7417 0.693855 -18.9687 0.115918 -14.2949 -0.716913 1.67658 0.913705 1.51842 6.73063 -0.0 0.0 -0.0 11.3229 8.15268 -22.7473 -23.4371 43.1844 -54.6396 0.580579 16.0455 -0.0818308 -6.22331 0.260395 -0.751338 -0.470953 9.10952 7.06606 0.0 0.0 0.0 20.8346 -1.62268 4.09336 -45.308 -0.838511 6.72479 24.827 23.77 -3.46297 17.4527 -0.0 -0.0 -0.0 0.0 -0.0 21.5764 -2.50148 6.95346 -14.2992 -0.319979 -2.16538 18.9673 4.82502 2.66016 -13.6931 0.0 0.0 0.0 0.0 0.0 
1165.72296683 731.834 -1713.43569277 -10.5710080768 42.5012138838 -1.10915452785 4.67635 0.570412 2.88348 4.6809 0.385853 2.9139 4.697 0.00568651 2.93931 4.68525 0.469626 2.90159 -10.8212 7.29438 -3.47705 -10.8873 16.0723 -1.44196 -0.0 0.0 -0.0 -1.45395 16.8892 -0.276977 -29.7231 -12.4136 64.8546 0.592117 -16.3475 0.0850489 -14.1197 -0.705634 1.65721 0.723191 2.76472 5.96128 -0.0 0.0 -0.0 11.3913 8.54777 -22.9032 -23.3892 43.5629 -53.3856 0.607045 16.7368 -0.0892994 -7.5189 0.324796 -0.90399 -0.506707 8.59226 7.0874 0.0 0.0 0.0 23.8164 -5.0815 3.42996 -47.4951 -1.01107 7.01376 23.2151 23.7415 -3.26167 16.5159 -0.0 -0.0 -0.0 0.0 -0.0 17.7611 -2.296 7.41761 -12.4618 -0.309286 -1.88368 19.2806 8.93011 2.74876 -13.472 0.0 0.0 0.0 0.0 0.0 
1141.94288888 729.495 -1719.37676811 -10.6345780615 45.2429872963 -0.938168908022 4.90098 0.557528 2.87964 4.90552 0.373239 2.90924 4.92066 0.00522478 2.93306 4.90896 0.468185 2.89549 -12.716 7.53991 -2.24996 -12.855 15.7479 0.0844335 -0.0 0.0 -0.0 -2.19048 17.7918 -1.26788 -31.0564 -12.5137 65.1923 0.580066 -16.032 0.081689 -13.897 -0.691378 1.63252 1.24206 3.0674 9.55128 -0.0 0.0 -0.0 11.5226 8.51597 -23.1949 -23.2796 43.6465 -52.2213 0.636433 17.4986 -0.0979495 -7.00017 0.298596 -0.843044 -0.896918 8.18496 9.57453 0.0 0.0 0.0 25.561 -4.09664 3.086 -49.1368 -1.14783 7.22631 22.6483 23.9459 -3.19356 16.4017 -0.0 -0.0 -0.0 0.0 -0.0 15.1979 -2.64474 7.81362 -10.3429 -0.285747 -1.55943 21.3225 9.75679 3.02113 -13.5902 0.0 0.0 0.0 0.0 0.0 
1109.04650781 728.576 -1723.94224347 -11.1849972363 50.1738458663 0.288301655918 5.39506 0.523628 2.70706 5.39907 0.350375 2.73486 5.41186 0.0280596 2.75706 5.40155 0.46297 2.71808 -14.7743 7.81233 -0.733851 -14.9754 15.3703 1.90087 -0.0 0.0 -0.0 -3.05678 18.8553 -2.39001 -32.4766 -12.7287 65.0295 0.625931 -17.2271 0.0948155 -13.8123 -0.685979 1.62312 2.10454 3.71484 15.6565 -0.0 0.0 -0.0 11.9835 7.08061 -24.197 -22.3385 42.9111 -50.3447 0.676336 18.5228 -0.110288 -5.88822 0.244303 -0.711627 -2.05865 7.23146 17.2204 0.0 0.0 0.0 29.9955 0.898322 1.45296 -47.8756 -1.04223 7.06338 20.7315 20.7443 -2.90312 13.0862 -0.0 -0.0 -0.0 0.0 -0.0 11.1728 -4.60716 7.4467 -7.2156 -0.22914 -1.08295 26.2953 6.21819 3.56679 -14.0141 0.0 0.0 0.0 0.0 0.0 
1084.89234393 726.114 -1728.03961842 -14.9780717248 53.4037592888 3.43577298948 6.24131 0.445451 2.69895 6.24532 0.272872 2.7218 6.2534 -0.00726633 2.73543 6.24321 0.424674 2.70229 -18.5571 7.96099 0.230579 -18.8561 15.2002 3.38933 -0.0 0.0 -0.0 -4.22714 20.1121 -3.87324 -33.8055 -12.8312 64.9671 0.748888 -20.3537 0.134436 -12.2414 -0.588437 1.44736 2.99024 3.84837 21.91 -0.0 0.0 -0.0 11.8877 6.37243 -23.9642 -20.4075 42.3501 -50.103 0.651182 17.8786 -0.102431 -3.51613 0.137081 -0.427951 -3.34037 5.3161 25.6166 0.0 0.0 0.0 33.0785 5.28656 0.772661 -40.0507 -0.469997 6.00538 16.8455 16.7142 -2.36343 8.94611 -0.0 -0.0 -0.0 0.0 -0.0 10.0346 -7.97989 7.1573 0.215765 0.00894492 0.0319027 25.7555 2.38192 3.4598 -15.2654 0.0 0.0 0.0 0.0 0.0 
1060.69602814 722.586 -1726.88917313 -19.2829491633 56.1700774871 7.87779556268 6.66663 0.481158 2.69129 6.6706 0.308994 2.71643 6.67991 0.049622 2.73348 6.66981 0.480544 2.6914 -21.1352 7.81325 -0.448765 -21.5103 15.2878 3.06384 -0.0 0.0 -0.0 -4.61839 21.4499 -4.12778 -34.1868 -13.9053 63.8657 0.792743 -21.4399 0.150079 -11.4357 -0.540294 1.3562 3.44718 4.18658 25.3474 -0.0 0.0 -0.0 11.3145 6.07391 -22.6904 -18.6033 42.1807 -50.2683 0.734507 19.9941 -0.129476 -2.86448 0.109694 -0.349276 -3.94783 4.95169 30.065 0.0 0.0 0.0 34.9087 2.56458 1.05957 -34.126 -0.135953 5.15884 14.7595 13.0342 -2.07053 5.9426 -0.0 -0.0 -0.0 0.0 -0.0 9.0613 -8.71999 6.36075 4.07669 0.189217 0.596744 25.6066 1.12332 3.43163 -15.7864 0.0 0.0 0.0 0.0 0.0 
